<svg width="5158" height="4342" viewBox="0 0 5158 4342" fill="none" xmlns="http://www.w3.org/2000/svg">
<path d="M2332.68 1997.56C1934.01 2256.46 2012.41 2158.99 1613.75 2417.89L384.435 3216.22M2332.68 1997.56C1934.01 2256.46 1969.84 2093.43 1571.17 2352.32L341.859 3150.65M2332.68 1997.56C1934.01 2256.46 1927.26 2027.86 1528.59 2286.76L299.282 3085.09M2332.68 1997.56C1934.01 2256.46 1884.68 1962.3 1486.02 2221.2L256.705 3019.53M2332.68 1997.56C1934.01 2256.46 1756.95 1765.61 1358.29 2024.51L128.974 2822.84M2332.68 1997.56C1934.01 2256.46 1842.11 1896.74 1443.44 2155.64L214.128 2953.96M2332.68 1997.56C1934.01 2256.46 1799.53 1831.18 1400.86 2090.07L171.551 2888.4M2332.68 1997.56C1934.01 2256.46 1714.38 1700.05 1315.71 1958.95L86.3976 2757.28M2332.68 1997.56C1934.01 2256.46 1671.8 1634.49 1273.13 1893.39L43.8208 2691.71M2332.68 1997.56C1934.01 2256.46 1629.22 1568.93 1230.56 1827.82L1.24403 2626.15M2332.68 1997.56L1635.01 2450.63L405.7 3248.96" stroke="#00B3E0" stroke-width="0.847986"/>
<path d="M2332.68 1997.56C2731.35 1738.66 2610.41 1770.64 3009.08 1511.75M2332.68 1997.56C2731.35 1738.66 2567.84 1705.08 2966.5 1446.18M2332.68 1997.56C2731.35 1738.66 2525.26 1639.52 2923.93 1380.62M2332.68 1997.56C2731.35 1738.66 2482.68 1573.96 2881.35 1315.06M2332.68 1997.56C2731.35 1738.66 2354.95 1377.27 2753.62 1118.37M2332.68 1997.56C2731.35 1738.66 2440.11 1508.39 2838.77 1249.5M2332.68 1997.56C2731.35 1738.66 2397.53 1442.83 2796.2 1183.93M2332.68 1997.56C2731.35 1738.66 2312.38 1311.71 2711.04 1052.81M2332.68 1997.56C2731.35 1738.66 2269.8 1246.14 2668.47 987.246M2332.68 1997.56C2731.35 1738.66 2227.22 1180.58 2625.89 921.683M2332.68 1997.56L3030.34 1544.49M3029.92 1544.31L4259.23 745.977M3008.65 1511.56L4237.97 713.232M2966.08 1446L4195.39 647.669M2923.5 1380.44L4152.81 582.107M2880.92 1314.87L4110.24 516.544M2838.35 1249.31L4067.66 450.982M2795.77 1183.75L4025.08 385.419M2753.19 1118.19L3982.51 319.857M2710.62 1052.62L3939.93 254.294M2668.04 987.061L3897.35 188.732M2625.46 921.498L3854.78 123.169" stroke="#00B3E0" stroke-width="0.847986"/>
<path d="M2825.32 2345.36C2426.66 2604.25 2547.59 2572.27 2148.92 2831.17M2825.32 2345.36C2426.66 2604.25 2590.17 2637.84 2191.5 2896.73M2825.32 2345.36C2426.66 2604.25 2632.74 2703.4 2234.08 2962.3M2825.32 2345.36C2426.66 2604.25 2675.32 2768.96 2276.65 3027.86M2825.32 2345.36C2426.66 2604.25 2803.05 2965.65 2404.38 3224.55M2825.32 2345.36C2426.66 2604.25 2717.9 2834.53 2319.23 3093.42M2825.32 2345.36C2426.66 2604.25 2760.47 2900.09 2361.81 3158.98M2825.32 2345.36C2426.66 2604.25 2845.63 3031.21 2446.96 3290.11M2825.32 2345.36C2426.66 2604.25 2888.2 3096.78 2489.54 3355.67M2825.32 2345.36C2426.66 2604.25 2930.78 3162.34 2532.11 3421.23M2825.32 2345.36L2127.66 2798.43M898.344 3596.75L2127.66 2798.43M919.609 3629.5L2148.93 2831.17M962.185 3695.06L2191.5 2896.74M1004.76 3760.62L2234.08 2962.3M1047.34 3826.18L2276.66 3027.86M1089.92 3891.75L2319.23 3093.42M1132.49 3957.31L2361.81 3158.99M1175.07 4022.87L2404.39 3224.55M1217.65 4088.44L2446.96 3290.11M1260.22 4154L2489.54 3355.67M1302.8 4219.56L2532.12 3421.24" stroke="#00B3E0" stroke-width="0.847986"/>
<path d="M2825.32 2345.35C3223.99 2086.46 3145.59 2183.93 3544.25 1925.03L4773.57 1126.71M2825.32 2345.35C3223.99 2086.46 3188.16 2249.49 3586.83 1990.59L4816.15 1192.27M2825.32 2345.35C3223.99 2086.46 3230.74 2315.05 3629.41 2056.15L4858.72 1257.83M2825.32 2345.35C3223.99 2086.46 3273.32 2380.61 3671.98 2121.72L4901.3 1323.39M2825.32 2345.35C3223.99 2086.46 3401.05 2577.3 3799.71 2318.4L5029.03 1520.08M2825.32 2345.35C3223.99 2086.46 3315.89 2446.18 3714.56 2187.28L4943.88 1388.96M2825.32 2345.35C3223.99 2086.46 3358.47 2511.74 3757.14 2252.84L4986.45 1454.52M2825.32 2345.35C3223.99 2086.46 3443.62 2642.86 3842.29 2383.97L5071.61 1585.64M2825.32 2345.35C3223.99 2086.46 3486.2 2708.43 3884.87 2449.53L5114.18 1651.21M2825.32 2345.35C3223.99 2086.46 3528.78 2773.99 3927.44 2515.09L5156.76 1716.77M2825.32 2345.35L3522.99 1892.28L4752.3 1093.96" stroke="#00B3E0" stroke-width="0.847986"/>
</svg>
