<svg width="393" height="512" viewBox="0 0 393 512" fill="none" xmlns="http://www.w3.org/2000/svg">
<path opacity="0.5" d="M303.731 424.554C67.7326 577.814 139.32 558.883 -96.6782 712.142M303.731 424.554C67.7326 577.814 164.525 597.694 -71.474 750.953M303.731 424.554C67.7326 577.814 189.729 636.505 -46.2698 789.764M303.731 424.554C67.7326 577.814 214.933 675.316 -21.0656 828.575M303.731 424.554C67.7326 577.814 290.546 791.749 54.5469 945.008M303.731 424.554C67.7326 577.814 240.137 714.127 4.13858 867.386M303.731 424.554C67.7326 577.814 265.341 752.938 29.3428 906.197M303.731 424.554C67.7326 577.814 315.75 830.56 79.7511 983.819M303.731 424.554C67.7326 577.814 340.954 869.371 104.955 1022.63M303.731 424.554C67.7326 577.814 366.158 908.182 130.16 1061.44M303.731 424.554L374.675 378.483M303.731 424.554L-109.266 692.758" stroke="#00B3E0"/>
<path opacity="0.5" d="M307.475 422.123C543.474 268.864 497.062 326.563 733.061 173.303M307.475 422.123C543.474 268.864 522.266 365.374 758.265 212.114M307.475 422.123C543.474 268.864 547.471 404.185 783.469 250.925M307.475 422.123C543.474 268.864 572.675 442.996 808.673 289.736M307.475 422.123C543.474 268.864 648.287 559.429 884.286 406.17M307.475 422.123C543.474 268.864 597.879 481.807 833.878 328.548M307.475 422.123C543.474 268.864 623.083 520.618 859.082 367.359M307.475 422.123C543.474 268.864 673.492 598.24 909.49 444.981M307.475 422.123C543.474 268.864 698.696 637.051 934.694 483.792M307.475 422.123C543.474 268.864 723.9 675.862 959.899 522.603M307.475 422.123L236.532 468.194M307.475 422.123L720.473 153.919" stroke="#00B3E0"/>
<path opacity="0.5" d="M85.876 89.0861C-150.123 242.345 -103.711 184.647 -339.71 337.906M85.876 89.0861C-150.123 242.345 -128.915 145.835 -364.914 299.095M85.876 89.0861C-150.123 242.345 -154.119 107.024 -390.118 260.284M85.876 89.0861C-150.123 242.345 -179.324 68.2134 -415.322 221.473M85.876 89.0861C-150.123 242.345 -254.936 -48.2198 -490.935 105.039M85.876 89.0861C-150.123 242.345 -204.528 29.4023 -440.526 182.662M85.876 89.0861C-150.123 242.345 -229.732 -9.40877 -465.731 143.851M85.876 89.0861C-150.123 242.345 -280.14 -87.0309 -516.139 66.2284M85.876 89.0861C-150.123 242.345 -305.345 -125.842 -541.343 27.4174M85.876 89.0861C-150.123 242.345 -330.549 -164.653 -566.547 -11.3937M85.876 89.0861L156.819 43.0148M85.876 89.0861L-327.122 357.29" stroke="#00B3E0"/>
<path opacity="0.5" d="M89.6199 86.6549C325.618 -66.6044 254.031 -47.6736 490.029 -200.933M89.6199 86.6549C325.618 -66.6044 228.827 -86.4846 464.825 -239.744M89.6199 86.6549C325.618 -66.6044 203.622 -125.296 439.621 -278.555M89.6199 86.6549C325.618 -66.6044 178.418 -164.107 414.417 -317.366M89.6199 86.6549C325.618 -66.6044 102.806 -280.54 338.804 -433.799M89.6199 86.6549C325.618 -66.6044 153.214 -202.918 389.213 -356.177M89.6199 86.6549C325.618 -66.6044 128.01 -241.729 364.008 -394.988M89.6199 86.6549C325.618 -66.6044 77.6013 -319.351 313.6 -472.61M89.6199 86.6549C325.618 -66.6044 52.3971 -358.162 288.396 -511.421M89.6199 86.6549C325.618 -66.6044 27.1931 -396.973 263.192 -550.232M89.6199 86.6549L18.6764 132.726M89.6199 86.6549L502.617 -181.549" stroke="#00B3E0"/>
</svg>
