<svg width="128" height="128" viewBox="0 0 128 128" fill="none" xmlns="http://www.w3.org/2000/svg">
<rect width="128" height="128" rx="64" fill="#FF8C42"/>
<path fill-rule="evenodd" clip-rule="evenodd" d="M60.5547 23L67.1875 24.7568L64.5234 36.1094C66.3036 36.541 68.0954 36.9777 69.8398 37.4395L72.4854 26.1631L79.124 27.9199L76.4072 39.5039C84.7833 42.57 90.9107 47.1656 89.708 55.7139C88.837 61.9727 85.5682 65.0061 81.2324 66.0684C87.1861 69.3617 90.2142 74.4135 87.3281 83.1689C83.7462 94.0393 75.2407 94.9572 63.9277 92.6826L61.1807 104.373L54.542 102.616L57.2529 91.082C55.5342 90.6279 53.7767 90.1475 51.9668 89.626L49.2441 101.217L42.6172 99.46L45.3643 87.7432C44.7448 87.5748 44.1191 87.4027 43.4912 87.2285C42.5488 86.9677 41.5967 86.7013 40.6328 86.4443L31.998 84.1602L35.2939 76.0898L37.7275 76.7676C38.9391 77.0994 40.1411 77.414 40.1133 77.3643C41.9901 77.8579 42.8258 76.5618 43.1553 75.6943L50.6025 43.96C50.6832 42.4623 50.1941 40.5748 47.5078 39.8623C47.6115 39.7881 42.7074 38.5925 42.6885 38.5879L44.4541 31.0576L53.6094 33.4863L53.5977 33.5234C54.9735 33.8869 56.3943 34.2288 57.8379 34.5781L60.5547 23ZM54.1221 81.1416C54.4927 81.2391 54.9297 81.3642 55.415 81.5C60.831 83.0201 72.6581 86.3353 74.54 78.3057C76.4673 70.0938 64.9973 67.3541 59.3965 66.0186C58.7705 65.8695 58.2122 65.7432 57.7598 65.623L54.1221 81.1416ZM59.4316 58.5127C59.7435 58.5955 60.1088 58.7041 60.5186 58.8203C65.0329 60.1004 74.8795 62.8884 76.5947 55.5879C78.345 48.1212 68.7778 45.8688 64.1035 44.7695C63.578 44.6458 63.112 44.5368 62.7334 44.4365L59.4316 58.5127Z" fill="white"/>
</svg>
