<svg width="28" height="27" viewBox="0 0 28 27" fill="none" xmlns="http://www.w3.org/2000/svg">
<path d="M13.9998 0.600952C21.3665 0.600952 27.3332 6.56762 27.3332 13.9343C27.3325 16.7279 26.4557 19.4511 24.8262 21.7203C23.1968 23.9896 20.8968 25.6907 18.2498 26.5843C17.5832 26.7176 17.3332 26.301 17.3332 25.951C17.3332 25.501 17.3498 24.0676 17.3498 22.2843C17.3498 21.0343 16.9332 20.2343 16.4498 19.8176C19.4165 19.4843 22.5332 18.351 22.5332 13.2343C22.5332 11.7676 22.0165 10.5843 21.1665 9.65095C21.2998 9.31762 21.7665 7.95095 21.0332 6.11762C21.0332 6.11762 19.9165 5.75095 17.3665 7.48429C16.2998 7.18429 15.1665 7.03429 14.0332 7.03429C12.8998 7.03429 11.7665 7.18429 10.6998 7.48429C8.14984 5.76762 7.03317 6.11762 7.03317 6.11762C6.29984 7.95095 6.76651 9.31762 6.89984 9.65095C6.04984 10.5843 5.53317 11.7843 5.53317 13.2343C5.53317 18.3343 8.63317 19.4843 11.5998 19.8176C11.2165 20.151 10.8665 20.7343 10.7498 21.601C9.98317 21.951 8.06651 22.5176 6.86651 20.501C6.61651 20.101 5.86651 19.1176 4.81651 19.1343C3.69984 19.151 4.36651 19.7676 4.83317 20.0176C5.39984 20.3343 6.04984 21.5176 6.19984 21.901C6.46651 22.651 7.33317 24.0843 10.6832 23.4676C10.6832 24.5843 10.6998 25.6343 10.6998 25.951C10.6998 26.301 10.4498 26.701 9.78317 26.5843C7.12757 25.7003 4.81773 24.0027 3.18132 21.732C1.54492 19.4614 0.665039 16.7331 0.666506 13.9343C0.666506 6.56762 6.63317 0.600952 13.9998 0.600952Z" fill="#F8F8F7"/>
</svg>
