<svg width="90" height="38" viewBox="0 0 90 38" fill="none" xmlns="http://www.w3.org/2000/svg">
<path d="M9.64273 7.30469V14.177H13.7445V7.30469H23.3872V16.9474H16.5148V21.0491H23.3872V30.6919H13.7445V23.8195H9.64273V30.6919H0V21.0491H6.87235V16.9474H0V7.30469H9.64273ZM16.5148 27.9215H20.6168V23.8195H16.5148V27.9215ZM2.77038 27.9215H6.87235V23.8195H2.77038V27.9215ZM9.64273 21.0491H13.7445V16.9474H9.64273V21.0491ZM16.5148 14.177H20.6168V10.0751H16.5148V14.177ZM2.77038 14.177H6.87235V10.0751H2.77038V14.177Z" fill="#1A1A1A"/>
<path d="M46.8747 31L46.7147 28.088C45.2107 30.456 42.4907 31.416 39.3867 31.416C32.6987 31.416 28.8907 26.424 28.8907 19.352C28.8907 12.152 33.1467 7.384 39.6747 7.384C44.4747 7.384 48.3147 10.072 49.2747 14.552H46.1067C45.3387 11.96 43.2267 10.136 39.5147 10.136C35.4187 10.136 32.2187 13.336 32.2187 19.352C32.2187 25.208 35.2267 28.664 39.5147 28.664C42.6187 28.664 46.3627 27.384 46.3627 22.584V21.976H40.2187V19.16H49.4347V31H46.8747ZM53.3702 31V13.784H56.2182V16.792C57.0822 14.84 58.8422 13.752 61.0822 13.688C61.3702 13.688 61.6262 13.688 61.9462 13.72V16.824C61.2742 16.728 60.7942 16.696 60.3142 16.696C57.6262 16.696 56.2822 18.2 56.2822 21.976V31H53.3702ZM64.4827 31V13.784H67.3947V31H64.4827ZM64.4827 11.32V7.8H67.3947V11.32H64.4827ZM83.561 31V28.408C82.505 30.232 80.681 31.416 77.929 31.416C73.993 31.416 70.569 28.152 70.569 22.456C70.569 16.792 73.993 13.496 77.929 13.496C80.681 13.496 82.505 14.68 83.561 16.504V7.8H86.473V31H83.561ZM78.665 28.92C81.257 28.92 83.689 27 83.689 22.456C83.689 17.912 81.257 15.992 78.665 15.992C75.689 15.992 73.737 18.36 73.737 22.456C73.737 26.552 75.689 28.92 78.665 28.92Z" fill="#1A1A1A"/>
</svg>
