<svg width="32" height="32" viewBox="0 0 32 32" fill="none" xmlns="http://www.w3.org/2000/svg">
<path d="M16.0002 10.6667V8.44444M16.0002 10.6667H13.7779C11.3233 10.6667 9.3335 8.67683 9.3335 6.22223C9.3335 4.99492 10.3284 4 11.5557 4C14.0103 4 16.0002 5.98984 16.0002 8.44444M16.0002 10.6667H18.2224C20.677 10.6667 22.6668 8.67683 22.6668 6.22223C22.6668 4.99492 21.6719 4 20.4446 4C17.99 4 16.0002 5.98984 16.0002 8.44444M16.0002 10.6667V26.6667M25.3335 15.6432V22.6667C25.3335 24.8759 23.5427 26.6667 21.3335 26.6667H10.6668C8.4577 26.6667 6.66683 24.8759 6.66683 22.6667V15.6432M25.3335 15.6432V15.3333M25.3335 15.6432C26.1306 15.1821 26.6668 14.3204 26.6668 13.3333C26.6668 11.8606 25.473 10.6667 24.0002 10.6667H8.00016C6.5274 10.6667 5.3335 11.8606 5.3335 13.3333C5.3335 14.3204 5.86976 15.1821 6.66683 15.6432M25.3335 15.6432C24.9412 15.8701 24.4859 16 24.0002 16H8.00016C7.51444 16 7.05906 15.8701 6.66683 15.6432M6.66683 15.6432V15.3333" stroke="#F77D26" stroke-width="2" stroke-linejoin="round"/>
</svg>
