<svg width="32" height="32" viewBox="0 0 32 32" fill="none" xmlns="http://www.w3.org/2000/svg">
<path d="M16.0001 28.3334C22.8115 28.3334 28.3334 22.8115 28.3334 16C28.3334 9.18851 22.8115 3.66669 16.0001 3.66669M16.0001 28.3334C9.18857 28.3334 3.66675 22.8115 3.66675 16C3.66675 9.18851 9.18857 3.66669 16.0001 3.66669M16.0001 28.3334C12.8705 28.3334 10.3334 22.8115 10.3334 16C10.3334 9.18851 12.8705 3.66669 16.0001 3.66669M16.0001 28.3334C19.1297 28.3334 21.6667 22.8115 21.6667 16C21.6667 9.18851 19.1297 3.66669 16.0001 3.66669M28.0001 16H4.00008" stroke="#1A1A1A" stroke-width="2" stroke-linecap="square"/>
</svg>
