<svg width="32" height="32" viewBox="0 0 32 32" fill="none" xmlns="http://www.w3.org/2000/svg">
<path d="M15.9998 28.3334C22.8113 28.3334 28.3332 22.8115 28.3332 16C28.3332 9.18851 22.8113 3.66669 15.9998 3.66669M15.9998 28.3334C9.18833 28.3334 3.6665 22.8115 3.6665 16C3.6665 9.18851 9.18833 3.66669 15.9998 3.66669M15.9998 28.3334C12.8702 28.3334 10.3332 22.8115 10.3332 16C10.3332 9.18851 12.8702 3.66669 15.9998 3.66669M15.9998 28.3334C19.1294 28.3334 21.6665 22.8115 21.6665 16C21.6665 9.18851 19.1294 3.66669 15.9998 3.66669M27.9998 16H3.99984" stroke="#11A967" stroke-width="2" stroke-linecap="square"/>
</svg>
