<svg width="33" height="32" viewBox="0 0 33 32" fill="none" xmlns="http://www.w3.org/2000/svg">
<path d="M9.27592 19.7239C8.75521 20.2445 7.911 20.2445 7.39029 19.7239L3.60928 15.9428C3.08857 15.4221 3.08857 14.5779 3.60928 14.0572L13.2759 4.39052C13.526 4.14048 13.8651 4 14.2187 4H19.1143C19.4679 4 19.8069 4.14048 20.0571 4.39052L21.3903 5.72381C21.9109 6.24451 21.9109 7.08873 21.3903 7.60943L9.27592 19.7239Z" stroke="#F8F8F7" stroke-width="2" stroke-linecap="round" stroke-linejoin="round"/>
<path d="M13 16.6666L22.1144 25.781C23.1557 26.8224 24.8443 26.8224 25.8856 25.781L26.1144 25.5522C27.1557 24.5109 27.1557 22.8224 26.1144 21.781L17 12.6666" stroke="#F8F8F7" stroke-width="2" stroke-linecap="round" stroke-linejoin="round"/>
</svg>
