<svg width="120" height="22" viewBox="0 0 120 22" fill="none" xmlns="http://www.w3.org/2000/svg">
<path d="M10.3034 12.2943L1.14489 18.2419H5.90287L13.1487 13.5365V20.2279L16.2067 18.242V12.2943H25.3653L29.3557 9.70291H19.0518L28.2101 3.75545L23.4521 3.75545L16.2067 8.46066V1.76953L13.1487 3.75547V9.70291H3.99043L0 12.2943H10.3034Z" fill="currentColor"/>
<path d="M111.691 12.0481L115.747 7.49219H118.625L114.628 11.8283L119.084 18.2426H116.247L113.01 13.5668L111.691 14.9855V18.2426H109.313V3.75552H111.691V12.0481Z" fill="currentColor"/>
<path d="M108.096 7.43222C106.637 7.47218 105.618 8.19154 105.099 9.43043V7.49216H102.781V18.2426H105.159V12.7075C105.159 10.5894 105.998 9.79011 107.636 9.79011C107.936 9.79011 108.216 9.81009 108.616 9.87004V7.4522C108.436 7.43222 108.256 7.43222 108.096 7.43222Z" fill="currentColor"/>
<path fill-rule="evenodd" clip-rule="evenodd" d="M98.9336 9.09072C98.2742 7.95174 97.0154 7.29233 95.5167 7.29233C92.939 7.29233 90.8808 9.37048 90.8808 12.8873C90.8808 16.4242 92.939 18.5023 95.5167 18.5023C97.0154 18.5023 98.2742 17.8429 98.9336 16.6839V18.2426H101.332V7.49215H98.9336V9.09072ZM99.0535 12.8873C99.0535 15.485 97.6947 16.5641 96.1961 16.5641C94.5576 16.5641 93.4186 15.2452 93.4186 12.8873C93.4186 10.5494 94.5576 9.2306 96.1961 9.2306C97.6947 9.2306 99.0535 10.2897 99.0535 12.8873Z" fill="currentColor"/>
<path fill-rule="evenodd" clip-rule="evenodd" d="M82.2685 21.3628L79.8907 21.7394V7.49215H82.2685V9.09072C82.9479 7.95174 84.1868 7.29233 85.7055 7.29233C88.2832 7.29233 90.3613 9.37047 90.3613 12.8873C90.3613 16.4242 88.2832 18.5023 85.7055 18.5023C84.1868 18.5023 82.9479 17.8429 82.2685 16.6839V21.3628ZM85.0061 16.5641C86.6646 16.5641 87.8236 15.2452 87.8236 12.8873C87.8236 10.5494 86.6646 9.2306 85.0061 9.2306C83.5074 9.2306 82.1686 10.2897 82.1686 12.8873C82.1686 15.485 83.5074 16.5641 85.0061 16.5641Z" fill="currentColor"/>
<path d="M75.2706 11.8683L73.5721 11.5485C72.573 11.3687 72.0535 11.029 72.0535 10.3696C72.0535 9.51037 73.0526 9.13071 74.1116 9.13071C75.2906 9.13071 76.2298 9.53035 76.4895 10.6294H78.8274C78.4677 8.45131 76.6294 7.25238 74.2715 7.25238C71.7937 7.25238 69.7355 8.41135 69.7355 10.4695C69.7355 12.3678 71.2742 13.1671 72.9527 13.4868L74.6711 13.8065C75.8701 14.0263 76.6694 14.426 76.6694 15.2852C76.6694 16.1444 75.6503 16.644 74.3514 16.644C72.9327 16.644 72.0934 16.0046 71.8137 14.7657H69.4558C69.7156 16.8838 71.494 18.5023 74.3115 18.5023C76.9691 18.5023 79.0073 17.2834 79.0073 15.0454C79.0073 13.0472 77.4886 12.2879 75.2706 11.8683Z" fill="currentColor"/>
<path d="M58.17 9.23063C56.5515 9.23063 55.6523 10.3496 55.6523 12.5277V18.2426H53.2744V4.13211L55.6523 3.75552V9.03081C56.2118 8.09165 57.3108 7.29236 59.0692 7.29236C61.7269 7.29236 62.6461 8.95088 62.6461 11.5685V18.2426H60.2682V12.228C60.2682 10.6094 60.0684 9.23063 58.17 9.23063Z" fill="currentColor"/>
<path fill-rule="evenodd" clip-rule="evenodd" d="M49.3359 9.09074C48.6565 7.95176 47.4576 7.29235 45.9589 7.29235C43.4212 7.29235 41.3231 9.21064 41.3231 12.6276C41.3231 16.0845 43.4212 17.9828 45.9589 17.9828C47.4576 17.9828 48.6565 17.3434 49.3359 16.1844V17.4233C49.3359 19.3616 48.2968 20.1209 46.6783 20.1209C45.2596 20.1209 44.6001 19.5614 44.3004 18.6422H41.9225C42.3222 20.7603 44.0207 21.9992 46.6783 21.9992C49.6956 21.9992 51.6938 20.5205 51.6938 17.0436V7.49217H49.3359V9.09074ZM49.4358 12.6276C49.4358 15.1254 48.137 16.0645 46.6383 16.0645C45.0397 16.0645 43.8608 14.8856 43.8608 12.6276C43.8608 10.4096 45.0397 9.23062 46.6383 9.23062C48.137 9.23062 49.4358 10.1498 49.4358 12.6276Z" fill="currentColor"/>
<path d="M64.6473 15.4251C64.6473 17.763 65.2868 18.2426 67.5647 18.2426H69.7074L68.889 16.4042H68.2641C67.2051 16.4042 67.0252 16.1444 67.0252 15.0654V9.29055H69.1833V7.49216H67.0252V4.69465H64.6473V7.49216H62.6874L63.4881 9.29056L64.6473 9.29055V15.4251Z" fill="currentColor"/>
<path d="M37.9935 18.2426V7.49218H40.3713V18.2426H37.9935Z" fill="currentColor"/>
<path d="M37.9935 3.75552V6.11341H40.3713V3.75552H37.9935Z" fill="currentColor"/>
<path d="M33.9432 3.75552V18.2426H36.3211V3.75552H33.9432Z" fill="currentColor"/>
</svg>
