<svg width="33" height="32" viewBox="0 0 33 32" fill="none" xmlns="http://www.w3.org/2000/svg">
<path d="M30.552 17.7817C31.5318 10.0947 26.1148 3.067 18.4582 2.08508C10.8016 1.10317 3.76083 6.53175 2.78101 14.2047C1.80118 21.8777 7.21821 28.9194 14.8748 29.9153C22.5454 30.8972 29.5582 25.4687 30.552 17.7817Z" fill="#1A1A1A"/>
<path d="M21.7196 10.9783L15.8127 16.8979L14.147 15.2286C19.9559 9.40726 20.5298 9.91225 21.7196 10.9783Z" fill="white"/>
<path d="M15.8123 17.0382C15.7704 17.0382 15.7424 17.0242 15.7144 16.9961L14.0347 15.3268C13.9787 15.2707 13.9787 15.1866 14.0347 15.1305C19.9416 9.21092 20.5575 9.77202 21.8033 10.8942C21.8313 10.9223 21.8453 10.9503 21.8453 10.9924C21.8453 11.0345 21.8313 11.0625 21.8033 11.0906L15.8963 16.9961C15.8823 17.0242 15.8403 17.0382 15.8123 17.0382ZM14.3426 15.2287L15.8123 16.7015L21.5093 10.9924C20.4735 10.0666 19.7736 9.78604 14.3426 15.2287Z" fill="#1A1A1A"/>
<path d="M17.5062 18.5952L15.8965 16.982L21.8034 11.0625C23.3851 12.6616 21.0196 15.2567 17.5062 18.5952Z" fill="white"/>
<path d="M17.5062 18.7355C17.4642 18.7355 17.4362 18.7214 17.4082 18.6934L15.7985 17.0802C15.7705 17.0522 15.7705 17.0241 15.7705 16.9821C15.7705 16.94 15.7845 16.9119 15.8125 16.8839L21.7194 10.9643C21.7754 10.9082 21.8594 10.9082 21.9154 10.9643C22.2793 11.301 22.4753 11.7779 22.4613 12.2689C22.4333 13.8259 20.6696 15.8038 17.6182 18.6934C17.5762 18.7214 17.5342 18.7355 17.5062 18.7355ZM16.0924 16.9821C16.9883 17.8938 17.3662 18.2585 17.5062 18.3988C19.8578 16.1544 22.1394 13.854 22.1534 12.2689C22.1674 11.9042 22.0274 11.5394 21.7894 11.2589L16.0924 16.9821Z" fill="#1A1A1A"/>
<path d="M14.1749 15.2705L15.3647 16.4629C15.3927 16.4909 15.3927 16.519 15.3647 16.547C15.3507 16.5611 15.3507 16.5611 15.3367 16.5611L12.8731 17.0941C12.7471 17.1081 12.6352 17.024 12.6072 16.8977C12.5932 16.8276 12.6212 16.7574 12.6631 16.7154L14.0909 15.2846C14.1189 15.2565 14.1609 15.2425 14.1749 15.2705Z" fill="white"/>
<path d="M12.8312 17.2345C12.6213 17.2345 12.4673 17.0662 12.4673 16.8557C12.4673 16.7576 12.5093 16.6594 12.5793 16.5892L14.007 15.1584C14.091 15.0883 14.203 15.0883 14.287 15.1584L15.4767 16.3508C15.5607 16.4209 15.5607 16.5471 15.4767 16.6313C15.4487 16.6594 15.4208 16.6734 15.3788 16.6874L12.9152 17.2205C12.8872 17.2205 12.8592 17.2345 12.8312 17.2345ZM14.133 15.425L12.7612 16.7996C12.7332 16.8277 12.7192 16.8698 12.7472 16.9119C12.7612 16.9539 12.8032 16.968 12.8452 16.9539L15.1548 16.449L14.133 15.425Z" fill="#1A1A1A"/>
<path d="M24.841 7.69587C23.9451 6.82617 22.5034 6.85423 21.6356 7.76601C20.7677 8.67778 20.7957 10.1086 21.7055 10.9783C22.4474 11.6937 23.5672 11.8199 24.4491 11.2869L22.8533 9.68775L24.841 7.69587Z" fill="white"/>
<path d="M23.2733 11.7497C21.9435 11.7497 20.8657 10.6696 20.8657 9.33702C20.8657 8.00442 21.9435 6.92432 23.2733 6.92432C23.8892 6.92432 24.4911 7.16278 24.939 7.59763C24.967 7.62568 24.981 7.65374 24.981 7.69582C24.981 7.7379 24.967 7.76596 24.939 7.79401L23.0493 9.6877L24.5331 11.1746C24.5891 11.2307 24.5891 11.3149 24.5331 11.371C24.5191 11.385 24.5191 11.385 24.5051 11.399C24.1411 11.6235 23.7072 11.7497 23.2733 11.7497ZM23.2733 7.21889C22.0975 7.21889 21.1457 8.17275 21.1597 9.35105C21.1597 10.5293 22.1115 11.4832 23.2873 11.4692C23.6092 11.4692 23.9312 11.399 24.2251 11.2447L22.7554 9.78589C22.7274 9.75784 22.7134 9.72978 22.7134 9.6877C22.7134 9.64562 22.7274 9.61757 22.7554 9.58951L24.631 7.70985C24.2531 7.38722 23.7772 7.21889 23.2733 7.21889Z" fill="#1A1A1A"/>
<path d="M24.8831 7.73789L24.8552 7.70984L22.8535 9.68769L24.4352 11.2728C24.5892 11.1746 24.7432 11.0624 24.8692 10.9361C25.765 10.0524 25.765 8.62162 24.8831 7.73789Z" fill="white"/>
<path d="M24.4491 11.4272C24.4071 11.4272 24.3791 11.4132 24.3511 11.3851L22.7554 9.78601C22.7274 9.75796 22.7134 9.7299 22.7134 9.68782C22.7134 9.64574 22.7274 9.61768 22.7554 9.58963L24.743 7.59775C24.799 7.54164 24.883 7.54164 24.939 7.59775L24.981 7.6258C25.9188 8.56563 25.9188 10.0806 24.995 11.0344C24.855 11.1747 24.701 11.301 24.5331 11.3992C24.4911 11.4132 24.4631 11.4272 24.4491 11.4272ZM23.0493 9.68782L24.4631 11.1046C24.575 11.0344 24.687 10.9363 24.771 10.8521C25.5689 10.0525 25.6109 8.74799 24.841 7.90635L23.0493 9.68782Z" fill="#1A1A1A"/>
<path d="M21.9577 11.2306C21.6218 10.894 21.0759 10.894 20.7399 11.2306L15.4629 16.5189L16.3447 17.4027L21.9297 12.4931C22.2937 12.1845 22.3217 11.6374 22.0137 11.2727C21.9857 11.2587 21.9717 11.2447 21.9577 11.2306Z" fill="white"/>
<path d="M16.3304 17.543C16.2884 17.543 16.2604 17.5289 16.2324 17.5009L15.3506 16.6172C15.2946 16.561 15.2946 16.4769 15.3506 16.4208L20.6276 11.1325C21.0196 10.7397 21.6494 10.7397 22.0414 11.1325C22.4333 11.5252 22.4333 12.1565 22.0414 12.5492C22.0274 12.5633 22.0134 12.5773 21.9994 12.5913L16.4144 17.5009C16.4004 17.5289 16.3724 17.543 16.3304 17.543ZM15.6585 16.519L16.3444 17.2063L21.8314 12.3809C22.1394 12.1284 22.1674 11.6655 21.9154 11.3569C21.6634 11.0483 21.2015 11.0202 20.8936 11.2727C20.8796 11.2868 20.8656 11.3008 20.8376 11.3148L15.6585 16.519Z" fill="#1A1A1A"/>
<path d="M11.4173 22.5368C11.3613 22.5649 11.3333 22.621 11.3473 22.6771L11.5853 23.6871C11.6413 23.8273 11.5573 23.9957 11.4033 24.0378C11.2914 24.0798 11.1654 24.0378 11.0954 23.9536L9.55566 22.4246L14.5808 17.3888L16.3164 17.4169L17.4922 18.5951C17.2123 18.8336 15.5186 20.4748 11.4173 22.5368Z" fill="white"/>
<path d="M11.305 24.1779C11.193 24.1779 11.0811 24.1358 11.0111 24.0517L9.48535 22.5227C9.45736 22.4946 9.44336 22.4666 9.44336 22.4245C9.44336 22.3824 9.45736 22.3544 9.48535 22.3263L14.5104 17.2905C14.5384 17.2624 14.5804 17.2484 14.6084 17.2484L16.3441 17.2765C16.3861 17.2765 16.4141 17.2905 16.4421 17.3185L17.6179 18.4968C17.6459 18.5249 17.6599 18.567 17.6599 18.6091C17.6599 18.6511 17.6459 18.6792 17.6039 18.7073L17.5059 18.7914C16.0222 20.096 14.0065 21.4005 11.501 22.6489L11.7389 23.6449C11.7809 23.8272 11.697 24.0236 11.529 24.1218C11.445 24.1639 11.375 24.1779 11.305 24.1779ZM9.7653 22.4245L11.207 23.8553C11.249 23.9254 11.333 23.9535 11.403 23.9114C11.473 23.8693 11.501 23.7852 11.459 23.715L11.221 22.705C11.193 22.5788 11.249 22.4666 11.361 22.4105C13.8386 21.162 15.8402 19.8715 17.3099 18.595L16.2741 17.557L14.6644 17.529L9.7653 22.4245Z" fill="#1A1A1A"/>
<path d="M8.36562 23.6309L9.5694 22.4246L11.3611 24.2201L8.50559 24.0237C8.37961 24.0096 8.29563 23.8974 8.30963 23.7712C8.30963 23.7151 8.32362 23.659 8.36562 23.6309Z" fill="white"/>
<path d="M11.3612 24.3463L8.49169 24.1499C8.28173 24.1359 8.14175 23.9535 8.15575 23.7431C8.16975 23.659 8.19774 23.5748 8.26773 23.5187L9.47151 22.3123C9.5275 22.2562 9.61149 22.2562 9.66748 22.3123L11.4592 24.1078C11.5011 24.1499 11.5151 24.206 11.4871 24.2621C11.4592 24.3183 11.4172 24.3463 11.3612 24.3463ZM9.56949 22.6209L8.46369 23.7291C8.4217 23.7572 8.4217 23.8273 8.46369 23.8554C8.47769 23.8694 8.49169 23.8834 8.51968 23.8834L10.9972 24.0517L9.56949 22.6209Z" fill="#1A1A1A"/>
<path d="M14.0911 18.0341C14.0072 18.0341 13.9512 17.964 13.9512 17.8939C13.9512 17.8518 13.9652 17.8237 13.9932 17.7957L15.3509 16.435C15.4069 16.3789 15.4909 16.3789 15.5469 16.435L16.4287 17.3187C16.4707 17.3608 16.4847 17.4029 16.4707 17.459C16.4567 17.5011 16.4147 17.5432 16.3587 17.5572L14.1191 18.0341C14.1051 18.0341 14.0911 18.0341 14.0911 18.0341ZM15.4489 16.7296L14.5251 17.6554L16.0368 17.3328L15.4489 16.7296Z" fill="#1A1A1A"/>
<path d="M16.3163 17.4168L14.7765 17.7535C14.6646 17.7815 14.5526 17.7114 14.5246 17.5992C14.5106 17.529 14.5246 17.4589 14.5806 17.4028L15.4344 16.5471L16.3163 17.4168Z" fill="white"/>
<path d="M14.7484 17.8939C14.5524 17.8939 14.3984 17.7396 14.3984 17.5432C14.3984 17.445 14.4404 17.3608 14.4964 17.2907L15.3503 16.435C15.4063 16.3789 15.4902 16.3789 15.5462 16.435L16.4281 17.3187C16.4701 17.3608 16.4841 17.4029 16.4701 17.459C16.4561 17.5011 16.4141 17.5432 16.3581 17.5572L14.8184 17.8939C14.7904 17.8939 14.7624 17.8939 14.7484 17.8939ZM15.4482 16.7296L14.6924 17.4871C14.6644 17.5151 14.6644 17.5432 14.6784 17.5712C14.6924 17.5993 14.7204 17.6133 14.7624 17.6133L16.0501 17.3328L15.4482 16.7296Z" fill="#1A1A1A"/>
<path d="M24.8968 9.08463C24.8688 9.00047 24.7708 8.95838 24.6868 8.98644C24.6029 9.01449 24.5609 9.11268 24.5889 9.19685C24.5889 9.21088 24.6029 9.2249 24.6029 9.23893C24.6868 9.40726 24.6589 9.61767 24.5469 9.77197C24.4909 9.84211 24.5049 9.9403 24.5609 9.99641C24.6309 10.0525 24.7288 10.0385 24.7848 9.96835C24.9948 9.70183 25.0368 9.36518 24.8968 9.08463Z" fill="#1A1A1A"/>
</svg>
