<svg width="33" height="32" viewBox="0 0 33 32" fill="none" xmlns="http://www.w3.org/2000/svg">
<path d="M30.5525 17.7817C31.5323 10.0947 26.1153 3.067 18.4587 2.08508C10.8021 1.10317 3.76132 6.53175 2.78149 14.2047C1.80167 21.8777 7.2187 28.9194 14.8753 29.9153C22.5459 30.8972 29.5587 25.4687 30.5525 17.7817Z" fill="#F8F8F7"/>
<path d="M21.7201 10.9783L15.8132 16.8979L14.1475 15.2286C19.9564 9.40726 20.5303 9.91225 21.7201 10.9783Z" fill="black"/>
<path d="M15.8128 17.0382C15.7708 17.0382 15.7428 17.0242 15.7149 16.9961L14.0352 15.3268C13.9792 15.2707 13.9792 15.1866 14.0352 15.1305C19.9421 9.21092 20.558 9.77202 21.8038 10.8942C21.8318 10.9223 21.8457 10.9503 21.8457 10.9924C21.8457 11.0345 21.8318 11.0625 21.8038 11.0906L15.8968 16.9961C15.8828 17.0242 15.8408 17.0382 15.8128 17.0382ZM14.3431 15.2287L15.8128 16.7015L21.5098 10.9924C20.474 10.0666 19.7741 9.78604 14.3431 15.2287Z" fill="#F8F8F7"/>
<path d="M17.5072 18.5952L15.8975 16.982L21.8044 11.0625C23.3861 12.6616 21.0205 15.2567 17.5072 18.5952Z" fill="black"/>
<path d="M17.5062 18.7355C17.4642 18.7355 17.4362 18.7214 17.4082 18.6934L15.7985 17.0802C15.7705 17.0522 15.7705 17.0241 15.7705 16.9821C15.7705 16.94 15.7845 16.9119 15.8125 16.8839L21.7194 10.9643C21.7754 10.9082 21.8594 10.9082 21.9154 10.9643C22.2793 11.301 22.4753 11.7779 22.4613 12.2689C22.4333 13.8259 20.6696 15.8038 17.6182 18.6934C17.5762 18.7214 17.5342 18.7355 17.5062 18.7355ZM16.0924 16.9821C16.9883 17.8938 17.3662 18.2585 17.5062 18.3988C19.8578 16.1544 22.1394 13.854 22.1534 12.2689C22.1674 11.9042 22.0274 11.5394 21.7894 11.2589L16.0924 16.9821Z" fill="#F8F8F7"/>
<path d="M14.1749 15.2705L15.3647 16.4629C15.3927 16.4909 15.3927 16.519 15.3647 16.547C15.3507 16.5611 15.3507 16.5611 15.3367 16.5611L12.8731 17.0941C12.7471 17.1081 12.6352 17.024 12.6072 16.8977C12.5932 16.8276 12.6212 16.7574 12.6631 16.7154L14.0909 15.2846C14.1189 15.2565 14.1609 15.2425 14.1749 15.2705Z" fill="black"/>
<path d="M12.8317 17.2345C12.6217 17.2345 12.4678 17.0662 12.4678 16.8557C12.4678 16.7576 12.5098 16.6594 12.5798 16.5892L14.0075 15.1584C14.0915 15.0883 14.2035 15.0883 14.2874 15.1584L15.4772 16.3508C15.5612 16.4209 15.5612 16.5471 15.4772 16.6313C15.4492 16.6594 15.4212 16.6734 15.3792 16.6874L12.9157 17.2205C12.8877 17.2205 12.8597 17.2345 12.8317 17.2345ZM14.1335 15.425L12.7617 16.7996C12.7337 16.8277 12.7197 16.8698 12.7477 16.9119C12.7617 16.9539 12.8037 16.968 12.8457 16.9539L15.1553 16.449L14.1335 15.425Z" fill="#F8F8F7"/>
<path d="M24.8415 7.69587C23.9456 6.82617 22.5039 6.85423 21.636 7.76601C20.7682 8.67778 20.7962 10.1086 21.706 10.9783C22.4479 11.6937 23.5677 11.8199 24.4495 11.2869L22.8538 9.68775L24.8415 7.69587Z" fill="black"/>
<path d="M23.2738 11.7497C21.944 11.7497 20.8662 10.6696 20.8662 9.33702C20.8662 8.00442 21.944 6.92432 23.2738 6.92432C23.8897 6.92432 24.4916 7.16278 24.9395 7.59763C24.9675 7.62568 24.9815 7.65374 24.9815 7.69582C24.9815 7.7379 24.9675 7.76596 24.9395 7.79401L23.0498 9.6877L24.5336 11.1746C24.5895 11.2307 24.5895 11.3149 24.5336 11.371C24.5196 11.385 24.5196 11.385 24.5056 11.399C24.1416 11.6235 23.7077 11.7497 23.2738 11.7497ZM23.2738 7.21889C22.098 7.21889 21.1462 8.17275 21.1602 9.35105C21.1602 10.5293 22.112 11.4832 23.2878 11.4692C23.6097 11.4692 23.9317 11.399 24.2256 11.2447L22.7559 9.78589C22.7279 9.75784 22.7139 9.72978 22.7139 9.6877C22.7139 9.64562 22.7279 9.61757 22.7559 9.58951L24.6315 7.70985C24.2536 7.38722 23.7777 7.21889 23.2738 7.21889Z" fill="#F8F8F7"/>
<path d="M24.8841 7.73789L24.8561 7.70984L22.8545 9.68769L24.4362 11.2728C24.5902 11.1746 24.7442 11.0624 24.8701 10.9361C25.766 10.0524 25.766 8.62162 24.8841 7.73789Z" fill="black"/>
<path d="M24.4496 11.4272C24.4076 11.4272 24.3796 11.4132 24.3516 11.3851L22.7559 9.78601C22.7279 9.75796 22.7139 9.7299 22.7139 9.68782C22.7139 9.64574 22.7279 9.61768 22.7559 9.58963L24.7435 7.59775C24.7995 7.54164 24.8835 7.54164 24.9395 7.59775L24.9815 7.6258C25.9193 8.56563 25.9193 10.0806 24.9955 11.0344C24.8555 11.1747 24.7015 11.301 24.5335 11.3992C24.4915 11.4132 24.4636 11.4272 24.4496 11.4272ZM23.0498 9.68782L24.4636 11.1046C24.5755 11.0344 24.6875 10.9363 24.7715 10.8521C25.5694 10.0525 25.6113 8.74799 24.8415 7.90635L23.0498 9.68782Z" fill="#F8F8F7"/>
<path d="M21.9577 11.2306C21.6218 10.894 21.0759 10.894 20.7399 11.2306L15.4629 16.5189L16.3447 17.4027L21.9297 12.4931C22.2937 12.1845 22.3217 11.6374 22.0137 11.2727C21.9857 11.2587 21.9717 11.2447 21.9577 11.2306Z" fill="black"/>
<path d="M16.3314 17.543C16.2894 17.543 16.2614 17.5289 16.2334 17.5009L15.3516 16.6172C15.2956 16.561 15.2956 16.4769 15.3516 16.4208L20.6286 11.1325C21.0205 10.7397 21.6504 10.7397 22.0424 11.1325C22.4343 11.5252 22.4343 12.1565 22.0424 12.5492C22.0284 12.5633 22.0144 12.5773 22.0004 12.5913L16.4154 17.5009C16.4014 17.5289 16.3734 17.543 16.3314 17.543ZM15.6595 16.519L16.3454 17.2063L21.8324 12.3809C22.1403 12.1284 22.1683 11.6655 21.9164 11.3569C21.6644 11.0483 21.2025 11.0202 20.8946 11.2727C20.8806 11.2868 20.8666 11.3008 20.8386 11.3148L15.6595 16.519Z" fill="#F8F8F7"/>
<path d="M11.4173 22.5368C11.3613 22.5649 11.3333 22.621 11.3473 22.6771L11.5853 23.6871C11.6413 23.8273 11.5573 23.9957 11.4033 24.0378C11.2914 24.0798 11.1654 24.0378 11.0954 23.9536L9.55566 22.4246L14.5808 17.3888L16.3164 17.4169L17.4922 18.5951C17.2123 18.8336 15.5186 20.4748 11.4173 22.5368Z" fill="black"/>
<path d="M11.306 24.1779C11.194 24.1779 11.082 24.1358 11.0121 24.0517L9.48633 22.5227C9.45833 22.4946 9.44434 22.4666 9.44434 22.4245C9.44434 22.3824 9.45833 22.3544 9.48633 22.3263L14.5114 17.2905C14.5394 17.2624 14.5814 17.2484 14.6094 17.2484L16.3451 17.2765C16.3871 17.2765 16.4151 17.2905 16.4431 17.3185L17.6189 18.4968C17.6469 18.5249 17.6609 18.567 17.6609 18.6091C17.6609 18.6511 17.6469 18.6792 17.6049 18.7073L17.5069 18.7914C16.0232 20.096 14.0075 21.4005 11.502 22.6489L11.7399 23.6449C11.7819 23.8272 11.6979 24.0236 11.53 24.1218C11.446 24.1639 11.376 24.1779 11.306 24.1779ZM9.76628 22.4245L11.208 23.8553C11.25 23.9254 11.334 23.9535 11.404 23.9114C11.474 23.8693 11.502 23.7852 11.46 23.715L11.222 22.705C11.194 22.5788 11.25 22.4666 11.362 22.4105C13.8395 21.162 15.8412 19.8715 17.3109 18.595L16.2751 17.557L14.6654 17.529L9.76628 22.4245Z" fill="#F8F8F7"/>
<path d="M8.3661 23.6309L9.56989 22.4246L11.3616 24.2201L8.50608 24.0237C8.3801 24.0096 8.29612 23.8974 8.31011 23.7712C8.31011 23.7151 8.32411 23.659 8.3661 23.6309Z" fill="black"/>
<path d="M11.3617 24.3463L8.49218 24.1499C8.28221 24.1359 8.14224 23.9535 8.15624 23.7431C8.17023 23.659 8.19823 23.5748 8.26822 23.5187L9.472 22.3123C9.52799 22.2562 9.61197 22.2562 9.66796 22.3123L11.4596 24.1078C11.5016 24.1499 11.5156 24.206 11.4876 24.2621C11.4596 24.3183 11.4176 24.3463 11.3617 24.3463ZM9.56998 22.6209L8.46418 23.7291C8.42219 23.7572 8.42219 23.8273 8.46418 23.8554C8.47818 23.8694 8.49218 23.8834 8.52017 23.8834L10.9977 24.0517L9.56998 22.6209Z" fill="#F8F8F7"/>
<path d="M14.0911 18.0341C14.0072 18.0341 13.9512 17.964 13.9512 17.8939C13.9512 17.8518 13.9652 17.8237 13.9932 17.7957L15.3509 16.435C15.4069 16.3789 15.4909 16.3789 15.5469 16.435L16.4287 17.3187C16.4707 17.3608 16.4847 17.4029 16.4707 17.459C16.4567 17.5011 16.4147 17.5432 16.3587 17.5572L14.1191 18.0341C14.1051 18.0341 14.0911 18.0341 14.0911 18.0341ZM15.4489 16.7296L14.5251 17.6554L16.0368 17.3328L15.4489 16.7296Z" fill="#F8F8F7"/>
<path d="M16.3163 17.4168L14.7765 17.7535C14.6646 17.7815 14.5526 17.7114 14.5246 17.5992C14.5106 17.529 14.5246 17.4589 14.5806 17.4028L15.4344 16.5471L16.3163 17.4168Z" fill="black"/>
<path d="M14.7494 17.8939C14.5534 17.8939 14.3994 17.7396 14.3994 17.5432C14.3994 17.445 14.4414 17.3608 14.4974 17.2907L15.3512 16.435C15.4072 16.3789 15.4912 16.3789 15.5472 16.435L16.429 17.3187C16.471 17.3608 16.485 17.4029 16.471 17.459C16.457 17.5011 16.4151 17.5432 16.3591 17.5572L14.8193 17.8939C14.7913 17.8939 14.7633 17.8939 14.7494 17.8939ZM15.4492 16.7296L14.6934 17.4871C14.6654 17.5151 14.6654 17.5432 14.6794 17.5712C14.6934 17.5993 14.7214 17.6133 14.7633 17.6133L16.0511 17.3328L15.4492 16.7296Z" fill="#F8F8F7"/>
<path d="M24.8973 9.08463C24.8693 9.00047 24.7713 8.95838 24.6873 8.98644C24.6034 9.01449 24.5614 9.11268 24.5894 9.19685C24.5894 9.21088 24.6034 9.2249 24.6034 9.23893C24.6873 9.40726 24.6593 9.61767 24.5474 9.77197C24.4914 9.84211 24.5054 9.9403 24.5614 9.99641C24.6313 10.0525 24.7293 10.0385 24.7853 9.96835C24.9953 9.70183 25.0373 9.36518 24.8973 9.08463Z" fill="#F8F8F7"/>
</svg>
