<svg width="128" height="128" viewBox="0 0 128 128" fill="none" xmlns="http://www.w3.org/2000/svg">
<rect width="128" height="128" rx="4" fill="#0A0A0A"/>
<path d="M95.6663 80.7291L84.936 92.2103C84.7028 92.4597 84.4206 92.6586 84.1069 92.7945C83.7933 92.9304 83.455 93.0004 83.1131 93.0002H32.2467C32.004 93.0002 31.7665 92.9295 31.5636 92.7967C31.3606 92.6639 31.201 92.4749 31.1042 92.2528C31.0075 92.0307 30.9779 91.7853 31.019 91.5466C31.0602 91.308 31.1703 91.0865 31.3359 90.9095L42.0742 79.4282C42.3069 79.1795 42.5882 78.9811 42.9007 78.8452C43.2134 78.7093 43.5506 78.6389 43.8916 78.6383H94.7553C94.998 78.6383 95.2354 78.7091 95.4385 78.8419C95.6412 78.9747 95.8008 79.1637 95.898 79.3858C95.9945 79.6079 96.0241 79.8533 95.983 80.0919C95.9418 80.3306 95.8317 80.5521 95.6663 80.7291ZM84.936 57.6092C84.7028 57.3598 84.4206 57.1609 84.1069 57.025C83.7933 56.8892 83.455 56.8191 83.1131 56.8193H32.2467C32.004 56.8193 31.7665 56.89 31.5636 57.0228C31.3606 57.1557 31.201 57.3447 31.1042 57.5667C31.0075 57.7888 30.9779 58.0343 31.019 58.2729C31.0602 58.5115 31.1703 58.733 31.3359 58.9101L42.0742 70.3913C42.3069 70.6401 42.5882 70.8384 42.9007 70.9743C43.2134 71.1102 43.5506 71.1806 43.8916 71.1812H94.7553C94.998 71.1812 95.2354 71.1105 95.4385 70.9776C95.6412 70.8448 95.8008 70.6558 95.898 70.4338C95.9945 70.2117 96.0241 69.9662 95.983 69.7275C95.9418 69.489 95.8317 69.2675 95.6663 69.0904L84.936 57.6092ZM32.2467 49.3622H83.1131C83.455 49.3623 83.7933 49.2923 84.1069 49.1564C84.4206 49.0205 84.7028 48.8216 84.936 48.5722L95.6663 37.091C95.8317 36.914 95.9418 36.6925 95.983 36.4539C96.0241 36.2152 95.9945 35.9698 95.898 35.7477C95.8008 35.5256 95.6412 35.3366 95.4385 35.2038C95.2354 35.071 94.998 35.0003 94.7553 35.0002H43.8916C43.5506 35.0008 43.2134 35.0712 42.9007 35.2071C42.5882 35.343 42.3069 35.5414 42.0742 35.7902L31.3387 47.2714C31.1732 47.4482 31.0632 47.6695 31.0219 47.9078C30.9807 48.1462 31.01 48.3915 31.1064 48.6134C31.2028 48.8354 31.3621 49.0244 31.5646 49.1575C31.7672 49.2905 32.0042 49.3616 32.2467 49.3622Z" fill="url(#paint0_linear_1289_26027)"/>
<defs>
<linearGradient id="paint0_linear_1289_26027" x1="36.4877" y1="94.3826" x2="89.692" y2="34.2674" gradientUnits="userSpaceOnUse">
<stop offset="0.08" stop-color="#9945FF"/>
<stop offset="0.3" stop-color="#8752F3"/>
<stop offset="0.5" stop-color="#5497D5"/>
<stop offset="0.6" stop-color="#43B4CA"/>
<stop offset="0.72" stop-color="#28E0B9"/>
<stop offset="0.97" stop-color="#19FB9B"/>
</linearGradient>
</defs>
</svg>
