<svg width="128" height="128" viewBox="0 0 128 128" fill="none" xmlns="http://www.w3.org/2000/svg">
<g clip-path="url(#clip0_1289_26087)">
<rect width="128" height="128" rx="64" fill="#1A1A1A"/>
<rect width="128" height="128" rx="64" fill="#00875A"/>
<path d="M40 69.2356C37.7909 69.2356 36 67.4447 36 65.2355L36.0004 35.5687C36.0004 33.3596 37.7913 31.5687 40.0004 31.5687H54.1023H58.5682H61.2476H65.7135H68.3933L72.8592 31.6866C75.6537 31.9215 78.2344 32.51 80.5851 33.4734C83.7886 34.7743 86.3635 36.7582 88.2312 39.4401C90.1667 42.1486 91.0808 45.4125 91.0808 49.116C91.0808 50.3246 90.9987 51.4752 90.8288 52.5639C90.678 53.5301 89.8459 54.2423 88.8681 54.2423H81.3881C80.1855 54.2423 79.2593 53.1813 79.4218 51.9898C79.4884 51.501 79.5235 50.9725 79.5235 50.4021C79.5235 47.3118 78.5542 45.4181 76.9266 44.2583L76.9169 44.2515C75.1007 42.941 72.5229 42.1829 68.9891 42.1829H49.7721C48.6676 42.1829 47.7721 43.0783 47.7721 44.1829V56.6214C47.7721 57.726 48.6676 58.6214 49.7721 58.6214H68.9891C73.739 58.6214 77.9794 60.0007 81.285 61.6729C84.5118 63.3052 86.9709 65.2799 88.2219 66.6986C91.0303 69.4465 92.2384 73.5188 92.2384 78.4838C92.2384 82.4656 91.2854 85.9757 89.2769 88.9071C87.3279 91.7648 84.6388 93.886 81.2826 95.2791L81.2739 95.2828C78.7085 96.3333 75.8989 96.9591 72.8617 97.1817L65.7157 97.2743H61.3449H61.2498H58.5704L58.6656 97.2743H54.1997L54.1045 97.2743H40.0004C37.7913 97.2743 36.0004 95.4835 36.0004 93.2743L36.0002 77.2005C36.0002 76.0959 36.8956 75.2004 38.0002 75.2004H45.7721C46.8767 75.2004 47.7721 76.0959 47.7721 77.2004V84.6602C47.7721 85.7647 48.6676 86.6602 49.7721 86.6602H69.3749C71.8272 86.6602 73.8694 86.3267 75.542 85.7131C77.1732 85.097 78.3575 84.176 79.1893 82.9721L79.1935 82.966C80.0175 81.7828 80.5095 80.153 80.5095 77.9264C80.5095 75.6977 80.0168 74.0909 79.2032 72.9435L79.1962 72.9336L79.1893 72.9236C78.3606 71.7243 77.1827 70.82 75.5586 70.2316L75.5421 70.2256L75.5258 70.2194C73.8595 69.5822 71.8234 69.2356 69.3749 69.2356H40Z" fill="white"/>
<rect x="56.7441" y="22.0147" width="12.1353" height="13.701" rx="2" fill="white"/>
<rect x="56.7441" y="92.5914" width="12.1353" height="13.3864" rx="2" fill="white"/>
</g>
<defs>
<clipPath id="clip0_1289_26087">
<rect width="128" height="128" rx="64" fill="white"/>
</clipPath>
</defs>
</svg>
