<svg width="128" height="128" viewBox="0 0 128 128" fill="none" xmlns="http://www.w3.org/2000/svg">
<g clip-path="url(#clip0_1289_26093)">
<path d="M64 128C99.4669 128 128 99.4669 128 64C128 28.5331 99.4669 0 64 0C28.5331 0 0 28.5331 0 64C0 99.4669 28.5331 128 64 128Z" fill="#2775CA"/>
<path d="M81.5998 74.1331C81.5998 64.8 75.9998 61.6 64.7998 60.2668C56.7998 59.2 55.1998 57.0668 55.1998 53.3331C55.1998 49.5993 57.8667 47.2 63.1998 47.2C67.9998 47.2 70.6667 48.8 71.9998 52.8C72.2667 53.6 73.0667 54.1331 73.8667 54.1331H78.1329C79.1998 54.1331 79.9998 53.3331 79.9998 52.2668V52C78.9329 46.1331 74.1329 41.6 67.9998 41.0668V34.6668C67.9998 33.6 67.1998 32.8 65.8667 32.5331H61.8667C60.7998 32.5331 59.9998 33.3331 59.7329 34.6668V40.8C51.7329 41.8668 46.6667 47.2 46.6667 53.8668C46.6667 62.6668 51.9998 66.1331 63.1998 67.4668C70.6667 68.8 73.0667 70.4 73.0667 74.6668C73.0667 78.9337 69.3329 81.8668 64.2667 81.8668C57.3329 81.8668 54.9329 78.9331 54.1329 74.9331C53.8667 73.8668 53.0667 73.3331 52.2667 73.3331H47.7329C46.6667 73.3331 45.8667 74.1331 45.8667 75.2V75.4669C46.9329 82.1331 51.1998 86.9331 59.9998 88.2668V94.6669C59.9998 95.7331 60.7998 96.5331 62.1329 96.8H66.1329C67.1998 96.8 67.9998 96 68.2667 94.6669V88.2668C76.2667 86.9331 81.5998 81.3331 81.5998 74.1331Z" fill="white"/>
<path d="M50.3998 102.133C29.5998 94.6669 18.933 71.4669 26.6667 50.9331C30.6667 39.7331 39.4667 31.2 50.3998 27.2C51.4667 26.6669 51.9998 25.8669 51.9998 24.5331V20.8C51.9998 19.7331 51.4667 18.9331 50.3998 18.6669C50.1329 18.6669 49.5998 18.6669 49.333 18.9331C23.9998 26.9331 10.1329 53.8669 18.1329 79.2C22.9329 94.1331 34.3998 105.6 49.333 110.4C50.3998 110.933 51.4667 110.4 51.733 109.333C51.9998 109.067 51.9998 108.8 51.9998 108.267V104.533C51.9998 103.733 51.1998 102.667 50.3998 102.133ZM78.6667 18.9331C77.5998 18.4 76.533 18.9331 76.2667 20C75.9998 20.2669 75.9998 20.5331 75.9998 21.0669V24.8C75.9998 25.8669 76.7998 26.9331 77.5998 27.4669C98.3998 34.9331 109.067 58.1331 101.333 78.6669C97.333 89.8669 88.533 98.4 77.5998 102.4C76.533 102.933 75.9998 103.733 75.9998 105.067V108.8C75.9998 109.867 76.533 110.667 77.5998 110.933C77.8667 110.933 78.3998 110.933 78.6667 110.667C104 102.667 117.867 75.7331 109.867 50.4C105.067 35.2 93.333 23.7331 78.6667 18.9331Z" fill="white"/>
</g>
<defs>
<clipPath id="clip0_1289_26093">
<rect width="128" height="128" fill="white"/>
</clipPath>
</defs>
</svg>
